<svg version="1.1" id="Layer_1" xmlns="http://www.w3.org/2000/svg" xmlns:xlink="http://www.w3.org/1999/xlink" x="0px" y="0px"
	 width="100%" viewBox="0 0 1250 1054" enable-background="new 0 0 1250 1054" xml:space="preserve">

<path fill="#1A1A40" opacity="1.000000" stroke="none" 
	d="
M454.152405,601.440857 
	C413.082794,609.893982 372.433319,609.245850 331.950989,599.889099 
	C328.535736,599.099731 326.174103,599.492737 324.247314,602.261963 
	C321.629669,606.024109 318.434662,606.455994 314.389526,604.572327 
	C311.853027,603.391113 309.071655,602.594177 306.316101,602.051697 
	C298.146820,600.443298 291.296875,597.084778 287.518982,589.126343 
	C286.682739,587.364685 285.031342,586.595459 283.235901,585.959351 
	C277.912598,584.073486 272.432007,582.476990 267.380035,580.014221 
	C258.870483,575.865906 250.199463,575.459656 241.221405,577.524048 
	C237.283554,578.429382 233.960571,577.720459 230.411346,575.527466 
	C212.870163,564.689331 195.169800,554.107544 177.464676,543.537292 
	C175.044037,542.092163 173.778458,540.737732 174.609787,537.649719 
	C175.827347,533.127136 174.634964,529.329651 171.661926,525.293030 
	C162.759552,513.205688 158.425247,498.939362 154.154541,484.766174 
	C145.268845,455.277283 134.222885,426.666718 120.536438,399.050995 
	C113.216141,384.280518 107.363152,368.977844 104.856682,352.481323 
	C101.900253,333.023407 107.993423,316.651215 121.023865,302.614105 
	C131.334549,291.506866 142.265625,280.976501 152.611679,269.900787 
	C162.055832,259.790649 170.460159,248.831284 177.684219,236.980743 
	C179.530807,233.951569 180.057510,231.092224 179.500534,227.576492 
	C176.858566,210.899658 176.981522,210.915573 188.012589,198.534195 
	C201.422104,183.483246 214.798752,168.402649 228.104797,153.260345 
	C229.975769,151.131165 231.877487,149.876221 234.839417,149.814285 
	C245.000626,149.601822 253.824326,146.092606 262.715057,140.833191 
	C294.378601,122.102280 328.741547,109.690079 364.159363,100.127106 
	C382.797363,95.094757 401.583221,90.391937 420.834656,88.760742 
	C439.015289,87.220284 457.206085,84.341850 475.578888,86.861656 
	C499.369293,90.124466 522.918091,94.138863 544.180054,106.276184 
	C546.945496,107.854805 549.735840,106.878754 552.425781,106.313744 
	C557.424377,105.263824 560.797791,106.204765 563.863098,111.050217 
	C572.220276,124.260719 581.210754,137.076843 590.176270,149.891129 
	C592.072998,152.602020 592.487000,154.863632 590.740356,157.544083 
	C587.865723,161.955551 588.246033,166.168594 590.226746,171.039856 
	C596.315430,186.013840 600.440002,201.601410 603.154419,217.542542 
	C603.619751,220.275558 604.770264,222.470108 606.681335,224.489456 
	C626.166809,245.078827 650.116150,258.840637 675.874817,269.830872 
	C680.759460,271.914948 685.651794,274.091278 690.726318,275.600861 
	C714.380005,282.637390 725.720886,299.501038 729.003967,322.922852 
	C730.985535,337.059509 730.457825,351.162292 728.224426,365.226196 
	C727.642334,368.891754 727.083435,372.501190 730.588135,375.236084 
	C731.894043,376.255096 732.254639,377.679932 731.422852,379.647583 
	C732.359131,381.652893 731.737244,383.283386 731.352600,384.877319 
	C728.735596,395.722931 725.871460,406.508759 723.327576,417.370392 
	C722.403625,421.315369 720.258179,423.314423 716.328918,424.020142 
	C699.834106,426.982788 684.688538,433.062012 671.541443,443.701935 
	C668.513184,446.152679 664.717712,447.142212 661.161560,448.525513 
	C657.606995,449.908173 654.926331,452.051605 652.937134,455.393402 
	C647.998413,463.690216 643.019470,471.960968 638.207336,480.334045 
	C633.396423,488.705017 635.878052,497.105743 637.804565,505.526245 
	C638.024719,506.488495 638.688477,507.427338 639.519836,507.935516 
	C646.392700,512.136841 645.834900,518.591736 644.711426,525.551514 
	C640.769592,530.078491 635.957947,533.102844 632.034119,537.126831 
	C630.443726,538.757812 628.250183,539.695251 626.143188,539.032166 
	C616.851990,536.107422 609.075867,539.426331 601.279419,544.648132 
	C598.886353,545.351013 596.957825,544.863220 595.065491,544.173035 
	C583.042175,539.788025 570.956909,535.585571 558.732666,531.790894 
	C556.169800,530.995239 553.881348,529.681335 551.584900,528.311829 
	C539.288452,520.978760 526.216675,515.149353 513.415039,508.797485 
	C510.305664,507.254761 507.080566,507.322540 503.692413,508.112427 
	C500.308960,508.901245 497.290497,511.023560 493.280457,510.722473 
	C483.323975,505.048553 482.135468,502.353210 482.253418,486.480347 
	C481.735046,486.959015 481.957947,487.669159 481.709900,488.233978 
	C477.256073,498.374756 475.233521,508.639648 480.130737,519.643066 
	C478.932953,524.928223 475.911530,528.669617 472.344025,531.989624 
	C468.845490,535.245422 466.281830,538.915283 465.099274,543.670288 
	C464.000427,548.088745 461.104218,551.704651 458.579712,555.406128 
	C456.341797,558.687500 455.519989,561.907166 457.099945,565.716125 
	C458.542694,569.194153 458.553223,572.852661 457.768860,576.528320 
	C456.032837,584.663330 456.123260,593.045471 454.152405,601.440857 
z"/>
<path fill="#C5AEFF" opacity="1.000000" stroke="none" 
	d="
M492.831970,509.877319 
	C496.972595,509.882599 500.067200,507.592712 503.603027,506.709534 
	C507.409393,505.758789 510.864136,505.908600 514.243103,507.612854 
	C527.589417,514.344177 541.236572,520.454712 554.039429,528.294556 
	C560.839905,532.458801 569.070618,533.433044 576.559692,536.151001 
	C584.341370,538.975159 591.993347,542.263428 600.538208,544.027771 
	C604.247681,544.383667 607.463440,544.653442 610.648193,542.938965 
	C612.697998,541.835510 614.898621,543.043518 616.833984,544.009338 
	C621.457642,546.316650 626.121338,548.531921 630.921875,550.443909 
	C636.339233,552.601562 639.108582,551.395386 640.723633,545.771301 
	C642.057739,541.125549 642.331299,536.268677 642.668518,531.453735 
	C642.795715,529.638000 642.537354,527.764282 643.771973,525.770264 
	C643.929565,523.579529 643.711548,521.706970 644.011353,519.921448 
	C644.785278,515.312683 643.408020,511.851135 639.243958,509.554260 
	C636.697998,508.149963 635.880615,505.775726 635.349548,503.019531 
	C633.256226,492.155975 633.659424,481.886047 640.938965,472.710358 
	C643.089355,469.999756 644.785828,466.850586 646.269226,463.703888 
	C650.774536,454.146667 657.104675,446.786041 667.927002,444.290802 
	C669.150635,444.008667 670.318604,443.143127 671.326782,442.320557 
	C684.293457,431.740631 699.289795,425.736816 715.617188,422.933655 
	C719.401794,422.283905 721.160156,420.808777 722.035095,416.945221 
	C724.787903,404.789642 728.011108,392.740570 731.211426,380.343750 
	C733.691711,379.125610 736.053223,378.304260 738.326538,377.285919 
	C746.354980,373.689514 752.380493,378.328522 758.591492,382.164337 
	C759.097290,382.476715 759.775024,383.378601 759.641785,383.726990 
	C757.845642,388.424194 760.658691,393.874725 757.339966,398.260284 
	C752.865784,404.172546 754.402344,411.639496 752.146118,418.146637 
	C751.557678,419.843811 754.005859,419.824921 755.310486,420.007904 
	C761.752014,420.911163 768.034363,422.398956 774.023926,424.975525 
	C789.420044,431.598602 796.680725,444.293884 799.951294,459.907471 
	C800.493774,462.497131 800.878113,465.144714 801.042175,467.783752 
	C801.384827,473.297363 803.846741,477.419098 808.333923,480.627045 
	C813.370483,484.227783 816.396301,489.753937 818.469788,495.143036 
	C819.920959,498.914429 817.670776,503.849335 818.890869,508.299713 
	C819.499878,510.521454 819.384949,512.952332 820.071289,515.139893 
	C821.264954,518.944458 822.010559,522.339966 817.115234,524.064453 
	C816.041016,524.442810 815.812317,525.627930 815.750610,526.578003 
	C815.164368,535.597595 811.895874,544.063721 811.044373,553.231628 
	C810.072510,563.695374 817.900085,566.538879 821.512390,572.870056 
	C822.547913,574.684875 824.821472,574.072021 826.615112,574.100403 
	C847.392151,574.429138 866.524414,569.288086 884.349670,558.282776 
	C898.068054,549.813049 912.507812,542.511292 926.635803,534.706421 
	C927.652649,534.144714 928.755005,533.740051 929.796814,533.220581 
	C931.655457,532.293945 934.745972,535.297241 935.473877,532.260071 
	C936.255005,529.000305 937.759644,525.612854 936.519165,522.018311 
	C935.983093,520.464844 935.925293,518.753052 935.489014,517.157227 
	C934.217773,512.507385 935.402466,508.745239 938.993896,505.469086 
	C942.331543,502.424316 946.530457,499.681580 945.121399,493.991455 
	C944.984558,493.438660 945.346191,492.685791 945.644714,492.113617 
	C948.909241,485.857239 965.334839,482.959442 970.357422,487.890167 
	C973.057129,490.540436 975.377014,493.216766 979.769165,491.319855 
	C981.505676,490.569885 982.403625,491.948425 981.564697,493.520935 
	C978.998901,498.330414 980.203918,503.179688 980.811157,508.144501 
	C981.267944,511.878967 981.715881,515.785889 979.431213,519.315125 
	C978.699890,520.444946 978.511108,522.054199 979.332886,523.124756 
	C980.488159,524.629883 981.672424,522.945435 982.831238,522.651245 
	C983.790222,522.407715 984.850342,522.149841 985.600952,521.560913 
	C994.045471,514.935120 1001.450012,517.613647 1008.492310,523.990784 
	C1011.381470,526.607117 1014.769104,527.133240 1018.626099,527.113647 
	C1027.922974,527.066406 1037.238525,526.140198 1046.521729,527.865723 
	C1073.333252,532.849609 1084.176392,548.711365 1078.575806,575.478699 
	C1077.973511,578.358215 1078.335327,580.618591 1080.212524,582.263062 
	C1090.060669,590.889832 1087.947021,599.688232 1082.676025,610.210205 
	C1073.000244,629.524719 1064.288818,649.364380 1056.121338,669.371399 
	C1052.936890,677.171936 1049.186157,684.249817 1043.837769,690.609985 
	C1034.976074,701.148132 1031.097534,712.754272 1035.235596,726.541382 
	C1037.126343,732.840942 1036.104492,739.417908 1034.860718,745.816284 
	C1034.507812,747.632507 1033.667236,749.381287 1032.017212,750.375366 
	C1019.339172,758.012451 1006.819580,765.930908 993.032104,771.551392 
	C989.718445,772.902222 986.819519,772.655457 984.223450,770.461365 
	C972.162903,760.267883 957.877441,755.455627 942.603455,752.893738 
	C940.488647,752.539124 938.414734,751.803528 936.393127,751.052612 
	C924.301331,746.561157 912.214355,746.716309 899.825562,750.109253 
	C892.162537,752.208069 884.428467,751.562256 876.976196,748.060547 
	C871.746765,745.603394 866.687500,749.307129 861.455383,749.393921 
	C856.536438,749.475403 855.427612,751.915222 856.818298,756.647522 
	C858.581909,762.648926 861.329163,768.074646 864.593445,773.303345 
	C876.135681,791.791504 890.142700,808.617798 901.065002,827.533447 
	C907.123413,838.025635 912.073181,849.012024 912.588074,861.169739 
	C912.979370,870.407959 908.708435,878.208008 901.148560,883.890320 
	C893.549927,889.601685 884.813354,892.788757 875.673889,894.831848 
	C872.284851,895.589539 870.666626,897.010559 869.816650,900.473877 
	C866.749573,912.970032 865.628235,913.506226 853.555359,909.744568 
	C847.685669,907.915649 841.704651,906.333618 836.031738,904.010559 
	C828.215881,900.809998 820.159912,900.765625 811.987244,900.916931 
	C809.857483,900.956299 808.166321,901.917480 806.384888,902.803955 
	C796.141235,907.901489 785.113586,910.328064 773.900757,911.786377 
	C769.678955,912.335388 766.211060,910.802307 763.805298,906.265869 
	C761.154236,901.267029 755.331604,899.028809 751.247620,895.171204 
	C740.642273,885.153809 726.870422,879.697937 715.699646,870.468201 
	C702.143921,859.267761 691.696777,845.667664 683.865051,830.003357 
	C681.039062,824.350891 678.335938,818.645203 676.174133,812.677002 
	C675.264038,810.164368 675.035828,808.110413 676.125854,805.566528 
	C680.054199,796.398010 683.639343,787.082825 687.535828,777.900085 
	C688.895935,774.694763 688.954834,772.432983 685.458191,770.558960 
	C681.897705,768.650574 681.061157,766.246826 684.350647,762.759766 
	C688.097656,758.787964 691.034424,754.063904 694.626282,749.929993 
	C698.166382,745.855408 697.942322,740.652161 699.481689,735.982422 
	C703.629028,723.400879 703.370972,711.573608 695.846130,699.858398 
	C692.413208,694.513855 694.562927,687.494385 695.522339,681.348694 
	C697.000977,671.876221 698.615601,662.446167 698.011475,652.371338 
	C693.936646,659.071350 689.853149,665.766174 685.790039,672.473267 
	C683.117798,676.884460 680.447693,681.297302 677.828003,685.739685 
	C675.908447,688.995056 673.964905,692.055176 673.780457,696.218689 
	C673.549011,701.441345 669.479675,703.592224 664.919739,700.862000 
	C658.375732,696.943726 652.004089,692.627014 646.035950,687.880615 
	C633.279846,677.735718 618.582520,678.111389 603.667480,679.347412 
	C599.049011,679.730042 594.480469,681.053406 589.872192,681.151550 
	C579.568848,681.371033 573.329529,688.865295 565.708130,693.916077 
	C565.432434,694.098816 565.175232,694.323120 564.949158,694.565125 
	C559.417114,700.485229 553.637390,701.496460 546.189880,697.276611 
	C538.977783,693.190247 530.394592,693.566956 522.325745,693.218872 
	C511.415039,692.748108 501.899506,689.619446 493.622864,682.328491 
	C488.396210,677.724365 482.742523,673.581055 477.103912,669.473206 
	C463.349182,659.452698 457.861542,645.014404 454.962921,629.058350 
	C453.370026,620.290100 454.138489,611.465027 453.866821,602.176697 
	C453.891754,592.858215 455.127869,584.150879 456.605896,575.470642 
	C457.053894,572.839539 457.608032,570.203735 456.332794,567.656006 
	C453.783539,562.562744 454.450989,558.082336 458.069214,553.572754 
	C461.491730,549.307129 464.136688,544.489258 465.211395,538.955872 
	C465.742798,536.219788 467.648529,534.150391 469.746613,532.583191 
	C474.021576,529.389709 476.607483,525.006104 479.291199,520.183228 
	C480.991272,512.864746 487.144043,511.936981 492.831970,509.877319 
z"/>
<path fill="#C5AFFF" opacity="1.000000" stroke="none" 
	d="
M791.564209,230.634995 
	C796.959717,227.483414 800.354553,222.524338 805.201538,219.243515 
	C809.772339,216.149612 812.595947,216.221741 816.686890,220.081879 
	C820.401794,223.587234 822.737671,228.008453 824.783203,232.559082 
	C826.783997,237.010162 828.862366,241.316666 833.302063,243.872223 
	C839.336670,247.345856 839.093201,253.387878 839.545654,259.114655 
	C840.134399,266.565643 842.880005,274.158783 837.460754,281.171387 
	C835.948730,283.128021 835.117981,284.167175 832.358643,283.313965 
	C823.209290,280.484924 823.350952,280.791138 817.198242,288.261444 
	C808.500610,298.821533 802.251221,311.023651 794.115845,321.956299 
	C791.774414,325.102814 789.190247,326.155365 786.136475,323.902100 
	C783.732483,322.128296 782.041321,322.898651 779.895569,324.008148 
	C768.428528,329.937500 765.879395,328.357483 765.910461,315.754761 
	C765.922058,311.064117 766.916382,306.539490 767.509216,301.941437 
	C768.522461,294.082306 769.837708,286.366241 767.464355,278.308533 
	C765.295532,270.945160 769.608459,264.398376 772.759827,258.062439 
	C774.965881,253.627136 778.012512,249.602325 780.770996,245.452209 
	C782.500366,242.850388 784.134033,240.542847 784.151306,236.962204 
	C784.169739,233.124954 788.710571,232.743591 791.564209,230.634995 
z"/>
<path fill="#C5AFFF" opacity="1.000000" stroke="none" 
	d="
M936.258972,325.334534 
	C936.490967,321.649353 934.767334,319.649414 931.899841,318.425781 
	C927.511780,316.553192 926.111267,313.269501 927.199707,308.741119 
	C927.387207,307.961243 927.813965,306.754791 927.466125,306.404053 
	C923.312378,302.215729 926.117126,298.472839 928.128296,294.733917 
	C930.034302,291.190369 931.705139,288.020050 935.752197,285.550140 
	C941.343384,282.137817 943.509155,275.169739 945.995789,269.049377 
	C946.148621,268.673431 945.899902,268.054993 945.687683,267.623260 
	C944.548157,265.304565 941.995239,262.915741 943.609314,260.386047 
	C946.631409,255.649963 949.810791,250.013275 955.165222,248.431091 
	C960.671875,246.803925 963.472595,243.435303 965.892944,239.129120 
	C967.930359,235.504333 969.943420,234.332962 974.186584,236.368103 
	C983.288696,240.733704 991.103333,246.179718 995.340820,255.751205 
	C996.072510,257.403839 997.110901,258.972260 998.251831,260.381989 
	C1001.093445,263.893250 1002.161804,266.912506 998.118164,270.663940 
	C996.064270,272.569366 995.932922,276.130676 996.536987,279.085083 
	C997.304993,282.841736 996.478821,286.732452 997.786682,290.441895 
	C998.352905,292.047546 997.514282,293.472931 995.874512,294.004211 
	C992.481262,295.103607 991.485535,297.860565 991.048828,300.890259 
	C990.361633,305.658081 988.252686,310.063568 987.262085,314.791656 
	C986.329651,319.242340 982.604797,325.201843 975.943542,326.009094 
	C969.143860,326.833130 964.682190,332.074646 959.005615,335.023956 
	C956.329712,336.414276 953.989014,337.690399 951.753662,334.444183 
	C951.328369,333.826599 950.298035,333.063599 949.731750,333.190796 
	C942.975281,334.708313 940.247131,329.208557 936.258972,325.334534 
z"/>
<path fill="#C5AEFF" opacity="1.000000" stroke="none" 
	d="
M882.009399,183.797302 
	C881.151245,177.525940 885.274597,173.450806 887.333191,168.658798 
	C888.052368,166.984604 888.993103,165.530060 888.987854,163.570908 
	C888.973877,158.336136 890.500427,154.014420 895.364868,150.955093 
	C898.960327,148.693832 900.319824,144.345963 902.025635,140.624252 
	C904.314758,135.630005 906.778625,132.622086 913.293457,132.649338 
	C924.928040,132.698029 936.382874,132.861618 947.628601,136.276825 
	C951.609070,137.485657 952.579773,139.828354 953.283081,143.805740 
	C954.973450,153.365921 952.106384,161.047806 946.759583,168.814911 
	C941.572083,176.350540 941.245483,185.726761 940.074951,194.575287 
	C939.511902,198.830704 938.168213,201.775681 934.193054,204.109421 
	C927.507446,208.034470 921.442932,212.743698 917.061768,219.574982 
	C912.260376,227.061493 911.860229,226.829010 903.729004,224.054153 
	C900.430847,222.928650 897.218811,221.524902 893.877625,220.558823 
	C890.349854,219.538788 887.817566,217.965729 887.920288,213.804581 
	C887.957214,212.307480 887.030945,211.221497 885.501465,211.104553 
	C880.857361,210.749512 879.567200,207.543930 878.926636,203.678345 
	C878.520996,201.230652 878.217529,198.742554 877.528381,196.371338 
	C876.685608,193.471252 877.068237,191.540939 880.339661,190.722595 
	C884.722412,189.626221 881.837891,186.494995 882.009399,183.797302 
z"/>
<path fill="#C5AFFF" opacity="1.000000" stroke="none" 
	d="
M844.989624,409.965698 
	C844.543213,412.239227 843.843689,413.817535 841.652222,414.238312 
	C837.326050,415.068909 834.306213,417.854004 831.481140,421.009888 
	C830.162109,422.483429 828.691101,424.005585 826.974609,424.907562 
	C818.011658,429.617279 809.619080,427.899170 809.089111,415.470032 
	C808.955444,412.333984 808.825684,409.177765 809.764587,406.051208 
	C810.389465,403.970245 810.611633,401.414032 808.867737,399.886658 
	C804.095581,395.707184 807.275452,391.217896 808.306274,387.055115 
	C809.365112,382.779083 809.743896,377.586975 815.993164,376.808014 
	C818.420349,376.505402 819.052429,373.994720 819.887878,371.996429 
	C823.814270,362.605103 825.457886,352.441193 829.759644,343.157776 
	C831.370422,339.681610 832.602417,336.050446 835.225647,333.153931 
	C835.878662,332.432892 836.724121,331.141479 837.318176,331.228241 
	C842.563354,331.994537 843.598083,327.873566 845.268494,324.575439 
	C847.570862,320.029358 851.744629,320.152557 856.009094,319.207733 
	C861.631165,317.962189 866.248352,318.549164 871.183289,321.361298 
	C876.307556,324.281311 877.070862,329.025360 877.898132,333.961792 
	C878.089478,335.103882 877.790405,336.530823 878.372925,337.373047 
	C883.687256,345.056366 881.713318,352.837616 878.974487,360.690369 
	C878.319519,362.568207 877.507812,364.491943 877.384766,366.433624 
	C877.134216,370.388519 876.409790,373.725342 871.661011,374.290161 
	C871.506409,374.308533 871.304321,374.397400 871.225830,374.518951 
	C864.548767,384.858582 852.831299,390.979950 847.701904,402.599854 
	C846.697937,404.874329 845.919678,407.248444 844.989624,409.965698 
z"/>
<path fill="#C5AFFF" opacity="1.000000" stroke="none" 
	d="
M979.272217,436.576050 
	C974.819031,435.589844 970.789978,434.506287 967.132080,432.481384 
	C963.118713,430.259613 959.367737,427.722504 959.925537,422.212280 
	C960.095032,420.538300 959.014038,419.483948 957.955444,418.370300 
	C954.942810,415.201172 954.851990,411.795715 957.895752,408.711517 
	C962.092773,404.458588 963.305908,399.609253 961.157776,394.128540 
	C959.529846,389.975037 960.723450,387.428528 964.802856,386.066742 
	C967.496765,385.167419 968.861816,383.201263 969.208069,380.548767 
	C970.595886,369.914520 978.676575,365.449554 987.055786,361.565887 
	C995.065857,357.853333 1007.225403,363.692627 1011.220093,371.532135 
	C1013.969849,376.928314 1013.687927,381.835785 1012.463623,387.221619 
	C1012.027405,389.140411 1012.013489,391.176697 1011.984009,393.161987 
	C1011.918701,397.569275 1012.157532,401.657898 1009.544006,405.980316 
	C1007.394836,409.534637 1007.445190,414.599487 1007.119324,419.038757 
	C1006.400330,428.832581 994.396057,439.251709 984.030090,436.571747 
	C982.671082,436.220428 981.114075,436.634705 979.272217,436.576050 
z"/>
<path fill="#C6AFFF" opacity="1.000000" stroke="none" 
	d="
M861.860718,491.925415 
	C861.217529,485.828766 862.433167,480.051178 861.095032,474.352386 
	C860.821960,473.189331 861.453796,472.100647 862.430603,471.290619 
	C869.714233,465.250854 871.980469,456.908112 873.032043,448.031677 
	C873.297852,445.788177 874.439697,443.941132 875.595703,442.141663 
	C877.678467,438.899811 879.083008,435.364807 880.654114,431.874512 
	C886.014587,419.966309 891.401611,415.853882 904.130798,417.174622 
	C909.338806,417.715027 912.984436,419.101440 915.939819,425.205627 
	C918.890869,431.300598 920.245789,437.536591 922.367798,443.687225 
	C923.105896,445.826691 922.581360,447.908997 922.546936,450.048340 
	C922.411133,458.476807 917.176636,462.522888 910.368103,465.849670 
	C904.923767,468.509857 903.508057,474.468475 901.048828,479.419281 
	C900.035828,481.458740 899.315063,483.864136 899.266357,486.120483 
	C899.119263,492.930237 894.729431,496.151306 889.122559,497.261230 
	C881.899963,498.690948 874.482910,500.528229 867.103210,497.250580 
	C864.672668,496.171021 862.716614,494.958069 861.860718,491.925415 
z"/>
<path fill="#C5AFFF" opacity="1.000000" stroke="none" 
	d="
M1095.631714,247.079651 
	C1100.436279,248.499069 1102.902710,250.945526 1101.504150,256.005829 
	C1100.769531,258.663971 1103.156128,260.172028 1104.506104,261.921326 
	C1106.467529,264.462982 1106.648315,266.592926 1103.371582,267.756592 
	C1097.374756,269.886200 1096.097046,274.906952 1096.143555,280.139343 
	C1096.204712,287.031616 1094.789795,293.146454 1090.813477,298.888580 
	C1088.386963,302.392609 1087.965454,306.943176 1086.465332,310.953461 
	C1084.858643,315.248199 1082.050049,317.303864 1078.519775,319.124115 
	C1075.688721,320.583923 1072.952881,322.029388 1071.279419,324.974487 
	C1070.084595,327.077301 1068.233765,327.340057 1066.180054,326.037994 
	C1060.677246,322.549164 1055.060425,319.664001 1048.137695,320.917908 
	C1045.875488,321.327698 1044.953613,319.561279 1044.965942,317.419769 
	C1044.982300,314.600861 1044.926636,311.820404 1045.735962,309.021851 
	C1047.010620,304.615173 1048.434937,300.213715 1046.176147,295.529175 
	C1045.077271,293.250031 1046.254028,291.025482 1048.170410,289.317352 
	C1055.425293,282.850555 1059.180420,274.685883 1060.310669,265.077881 
	C1060.661255,262.097443 1062.723999,259.686249 1064.892578,257.511780 
	C1069.972778,252.417694 1074.256592,246.639023 1083.119629,247.690262 
	C1086.889160,248.137375 1091.066406,245.832336 1095.631714,247.079651 
z"/>
<path fill="#C5AFFF" opacity="1.000000" stroke="none" 
	d="
M1064.634521,447.343079 
	C1065.865234,447.959259 1066.723389,448.519592 1067.664551,448.821381 
	C1072.000244,450.211670 1074.149048,452.419220 1071.476074,457.134369 
	C1070.072754,459.609833 1071.545044,461.917847 1072.629150,464.202942 
	C1076.150635,471.625671 1075.758911,474.450256 1070.175537,480.314270 
	C1068.270142,482.315460 1066.184204,484.690277 1066.343018,487.111603 
	C1066.662720,491.982666 1063.514526,493.184448 1060.274536,494.998169 
	C1055.201172,497.838165 1050.394531,501.152740 1045.342041,504.033173 
	C1042.491455,505.658356 1039.365967,507.548645 1036.444458,503.927948 
	C1036.245483,503.681366 1035.905273,503.378784 1035.635864,503.383759 
	C1025.998779,503.561859 1026.963745,494.421753 1024.076660,489.259979 
	C1021.830566,485.244293 1024.636353,480.053741 1026.772949,475.735291 
	C1029.323853,470.579071 1030.937500,465.297516 1029.015869,459.523163 
	C1028.858398,459.049866 1028.702515,458.572235 1028.598755,458.085388 
	C1027.550659,453.167603 1032.791748,450.968079 1033.501221,446.534485 
	C1034.156372,442.440491 1036.449707,439.056061 1042.130981,439.855255 
	C1044.833496,440.235443 1047.902588,438.584900 1050.702271,437.569183 
	C1055.521973,435.820587 1058.406616,437.769135 1060.076050,442.161530 
	C1060.913940,444.366028 1061.578247,446.603302 1064.634521,447.343079 
z"/>
<path fill="#232348" opacity="1.000000" stroke="none" 
	d="
M113.530098,408.840393 
	C118.963234,424.636169 124.707092,439.904846 131.742569,454.793091 
	C139.070038,470.299194 141.524521,487.408905 144.817078,504.620087 
	C144.569717,505.169525 144.280289,505.262604 143.588226,505.141541 
	C139.680267,495.270233 135.992828,485.665985 131.162201,476.597656 
	C120.031975,455.703339 116.884293,432.625641 112.394707,409.439514 
	C112.587509,408.883484 112.858788,408.766907 113.530098,408.840393 
z"/>
<path fill="#232347" opacity="1.000000" stroke="none" 
	d="
M608.425476,192.909424 
	C609.107727,191.424240 609.961548,192.104721 610.557312,192.902206 
	C620.192932,205.801193 627.103760,220.211960 633.869385,234.762421 
	C624.840881,229.888046 618.427307,222.452530 612.613770,214.379105 
	C611.836609,213.299820 611.931702,212.216736 612.039978,211.068451 
	C612.632629,204.782990 611.211853,198.878189 608.425476,192.909424 
z"/>
<path fill="#62627C" opacity="1.000000" stroke="none" 
	d="
M113.957458,408.645325 
	C113.661156,409.025146 113.392174,409.019867 112.719711,409.007324 
	C111.791718,406.498718 110.590576,404.081482 111.397766,400.451477 
	C112.449783,403.626923 113.217285,405.943573 113.957458,408.645325 
z"/>
<path fill="#62627C" opacity="1.000000" stroke="none" 
	d="
M143.196350,505.284912 
	C143.465012,504.946777 143.744431,504.966125 144.441498,505.030975 
	C145.208298,506.969879 146.202682,508.761749 145.787872,510.911774 
	C144.142838,509.446960 144.089279,507.339081 143.196350,505.284912 
z"/>
<path fill="#62627C" opacity="1.000000" stroke="none" 
	d="
M110.540863,398.065735 
	C110.598938,398.438049 110.610008,398.586792 110.621063,398.735565 
	C110.554863,398.577026 110.424713,398.413727 110.436134,398.261017 
	C110.458038,397.968079 110.560295,397.681183 110.629219,397.391785 
	C110.584099,397.541931 110.538979,397.692078 110.540863,398.065735 
z"/>
<path fill="#FCFBFD" opacity="1.000000" stroke="none" 
	d="
M643.592285,525.575562 
	C644.163696,532.699280 643.856384,539.977844 641.823608,546.993652 
	C640.107422,552.916870 636.328247,554.392090 630.762085,551.878906 
	C626.695801,550.042969 622.658447,548.143005 618.601440,546.286316 
	C615.137756,544.701111 611.967468,542.110413 607.893250,545.693665 
	C606.210266,547.173950 603.438416,545.913269 601.162231,544.338745 
	C602.049866,543.343933 603.285950,542.778992 604.262451,541.919189 
	C610.215820,536.676941 616.944519,535.509155 624.454651,537.731934 
	C627.368774,538.594421 629.769836,537.744751 632.045959,535.530090 
	C635.599548,532.072388 639.512268,528.983704 643.592285,525.575562 
z"/>
<path fill="#F7F7F9" opacity="1.000000" stroke="none" 
	d="
M493.001495,509.537537 
	C491.422974,511.708435 489.052094,512.456238 486.707001,513.218811 
	C483.497864,514.262390 481.729370,516.869263 479.651703,519.611633 
	C474.496979,510.007843 475.125092,500.261536 479.814728,490.519379 
	C480.794922,488.483185 480.847687,486.044098 482.693054,483.647888 
	C483.230408,488.455048 484.218506,492.775177 484.074768,497.057343 
	C483.853821,503.640625 487.730835,506.749420 493.001495,509.537537 
z"/>
</svg>